<svg xmlns="http://www.w3.org/2000/svg" width="128" height="128"><path d="M1244 218c-8.742 0-16 7.258-16 16v80c0 8.742 7.258 16 16 16h8c8.742 0 16-7.258 16-16v-31.998l28.799 38.398A24.02 24.02 0 0 0 1316 330h8c8.742 0 16-7.258 16-16v-80c0-8.742-7.258-16-16-16h-8c-8.742 0-16 7.258-16 16v31.998l-28.799-38.398A24.02 24.02 0 0 0 1252 218Zm0 8h8a16 16 0 0 1 12.8 6.4L1308 290v21.334l-48-64V314a8 8 0 0 1-8 8h-8zm72 0h8a8 8 0 0 1 8 8v80a8 8 0 0 1-8 8h-8v-88z" style="fill:#000" transform="translate(-1220 -210)"/></svg>