<svg xmlns="http://www.w3.org/2000/svg" width="128" height="128"><path d="M1244 16a8 8 0 0 0-8 8v80a8 8 0 0 0 8 8h8a8 8 0 0 0 8-8V48l43.2 57.6a16 16 0 0 0 12.8 6.4h8a8 8 0 0 0 8-8V24a8 8 0 0 0-8-8h-8a8 8 0 0 0-8 8v56l-43.2-57.6A16 16 0 0 0 1252 16Z" style="fill:#7c9ed9;stroke:#7c9ed9;stroke-width:16;stroke-linecap:round;stroke-linejoin:round" transform="translate(-1220)"/><path d="M1236 24v80a8 8 0 0 0 8 8V16a8 8 0 0 0-8 8m72 0v77.334l-48-64V48l43.2 57.6a16 16 0 0 0 12.8 6.4V16a8 8 0 0 0-8 8" style="fill:#26619c" transform="translate(-1220)"/><path d="M1244 16v96h8a8 8 0 0 0 8-8V45.334a2.667 2.667 0 0 1 4.8-1.6L1316 112h8a8 8 0 0 0 8-8V24a8 8 0 0 0-8-8h-8v66.666a2.667 2.667 0 0 1-4.8 1.6L1264.8 22.4A16 16 0 0 0 1252 16Z" style="fill:#afdbf5" transform="translate(-1220)"/></svg>